<?xml version="1.0" standalone="no"?>
<!DOCTYPE svg PUBLIC "-//W3C//DTD SVG 20010904//EN"
 "http://www.w3.org/TR/2001/REC-SVG-20010904/DTD/svg10.dtd">
<svg version="1.0" xmlns="http://www.w3.org/2000/svg"
 width="437.000000pt" height="437.000000pt" viewBox="0 0 437.000000 437.000000"
 preserveAspectRatio="xMidYMid meet">
<metadata>
Created by potrace 1.14, written by Peter Selinger 2001-2017
</metadata>
<g transform="translate(0.000000,437.000000) scale(0.100000,-0.100000)"
fill="#000000" stroke="none">
<path d="M670 4363 c-309 -53 -556 -272 -642 -568 l-23 -80 0 -1530 0 -1530
23 -80 c76 -263 284 -471 547 -547 l80 -23 1530 0 1530 0 80 23 c263 76 471
284 547 547 l23 80 0 1530 0 1530 -23 80 c-75 260 -279 466 -542 547 l-75 23
-1515 1 c-833 1 -1526 0 -1540 -3z m2603 -743 c176 -28 319 -171 347 -345 13
-79 13 -2099 0 -2178 -28 -176 -171 -319 -345 -347 -81 -13 -2099 -13 -2180 0
-174 28 -317 171 -345 347 -13 77 -13 2099 0 2176 28 171 171 319 336 346 70
12 2116 13 2187 1z"/>
<path d="M1069 3357 c-18 -12 -44 -38 -56 -56 -22 -33 -23 -40 -23 -292 l0
-259 315 0 315 0 0 315 0 315 -259 0 c-252 0 -259 -1 -292 -23z"/>
<path d="M1870 3065 l0 -315 315 0 315 0 0 315 0 315 -315 0 -315 0 0 -315z"/>
<path d="M2750 3065 l0 -315 315 0 315 0 0 259 c0 252 -1 259 -23 292 -12 18
-38 44 -56 56 -33 22 -40 23 -292 23 l-259 0 0 -315z"/>
<path d="M990 2185 l0 -315 315 0 315 0 0 315 0 315 -315 0 -315 0 0 -315z"/>
<path d="M1870 2185 l0 -315 315 0 315 0 0 315 0 315 -315 0 -315 0 0 -315z"/>
<path d="M2750 2185 l0 -315 315 0 315 0 0 315 0 315 -315 0 -315 0 0 -315z"/>
<path d="M990 1361 c0 -252 1 -259 23 -292 12 -18 38 -44 56 -56 33 -22 40
-23 292 -23 l259 0 0 315 0 315 -315 0 -315 0 0 -259z"/>
<path d="M1870 1305 l0 -315 315 0 315 0 0 315 0 315 -315 0 -315 0 0 -315z"/>
<path d="M2750 1305 l0 -315 259 0 c252 0 259 1 292 23 18 12 44 38 56 56 22
33 23 40 23 292 l0 259 -315 0 -315 0 0 -315z"/>
</g>
</svg>
